<svg version="1.1" viewBox="0 0 738.24 744.33" xmlns="http://www.w3.org/2000/svg">
  <g transform="translate(-167.7 -122.81)">
    <path d="m718.05 866c-48.333-4.4171-92.635-31.4-121.9-69.615-25.958 20.846-59.778 64.045-87.862 20.226-17.73-14.869-35.495-29.697-53.246-44.54-28.166 21.158-51.823 49.744-84.215 64.088-26.025-3.2585-42.085-29.057-63.171-43.107-10.131-4.3618-20.249-25.334-30.389-16.952-28.494 22.221-54.823 47.742-85.431 66.85-39.934-4.2582-16.652-58.947-23.323-86.657-0.77082-203.55-2.1428-407.17 2.4622-610.68 18.785-36.963 69.682-16.41 103.69-22.223 161.83-0.25964 323.76-1.9351 485.53 2.5364 20.071 8.2229 20.776 29.724 19.398 47.798 0.16206 120.69 0.32411 241.39 0.48616 362.08 80.796 20.323 138.75 105.93 123.4 188.59-12.778 86.498-98.429 152.34-185.42 141.61zm44-32.398c66.545-10.948 116.8-76.043 110.45-143.14-1.7253-68.39-61.158-128.82-130.23-128.53-62.414-5.9944-125.36 36.273-139.34 98.12-19.907 67.57 17.462 148.82 87.111 168.8 23.221 8.3948 47.899 8.1694 72.02 4.7496zm-33.5-43.891c-17.236-16.355-6.9119-45.304-9.5-67.705 4.4373-17.511-19.047-7.1006-29.338-9.8836-22.086 8.6138-72.658-10.121-35.537-29.056 21.578-1.6639 43.252-0.67982 64.875-0.94441 1.2799-24.539-3.5899-50.396 4.6105-73.787 33.739-17.03 26.741 32.459 27.144 52.86-3.1114 16.251 1.6163 24.734 18.972 20.706 20.337 3.0492 62.673-10.387 56.486 22.506-17.795 13.97-44.62 5.4246-66.71 8.0851-16.565-3.6252-5.7866 19.804-8.921 29.467-1.9019 17.075 8.4046 55.118-22.082 47.751zm-335.92-6.75c26.922-17.683 60.147-72.427 90.518-28.539 25.026 11.647 50.553 67.727 76.715 31.53 38.393-19.86-6.3934-60.715 4.3397-94.414 2.6156-89.795 86.671-166.63 176.47-160.64 13.613 0.96268 3.0423-22.17 6.3678-31.457v-343.31h-547c0.30222 211.16-0.75049 422.33 0.77368 633.49 23.336 7.7175 57.56-65.081 93.073-48.398 28.777 12.721 56.684 67.599 85.849 52.44 4.3127-3.5443 8.6066-7.1112 12.889-10.692zm-124.63-194.09c-23.35-42.723 50.738-23.823 74.006-28.59 35.703 7.8556 93.11-16.383 114.99 15.819-24.555 31.626-84.454 7.5322-122.53 15.349-22.111-0.64658-44.525 0.40347-66.465-2.5776zm1.0379-78.997c-24.157-41.298 46.88-24.686 71.306-28.435 56.446 0.12225 113.06-1.3898 169.38 2.2442 22.079 44.322-52.485 23.394-77.919 28.699-54.228-0.20066-108.68 1.3573-162.77-2.5073zm326.08 0.49845c-27.369-41.297 48.353-28.483 71.288-28.542 33.468 5.6653 6.8891 42.446-17.939 30.419-17.735-0.16103-35.78 0.90936-53.349-1.877zm-326.09-79.103c-26.338-42.006 48.086-24.4 70.931-28.659 111.68-0.39531 223.48-2.1916 335.08 1.756 25.562 41.216-47.892 24.507-70.99 28.466-111.65 0.42829-223.44 2.1734-335.03-1.5633zm1.5156-79.563c-21.571-27.423-5.1322-71.844-10.703-105.85-8.0142-49.039 52.112-32.195 80.895-34.506 37.583-8.9599 74.587 6.8269 61.46 50.8-7.3973 29.367 20.019 95.091-29.651 90.387-33.961 0.69201-68.136 2.144-102-0.83389zm99.5-69.583v-39h-77v78h77v-39zm85.001 6.8766c-33.013-35.561 36.986-31.703 59.283-30.512 53.761 0.0483 107.7-1.494 161.33 2.1977 24.686 40.937-44.137 26.461-67.198 29.237-51.126 0.11254-102.34 1.2568-153.42-0.9223z"/>
  </g>
</svg>
